<?xml version="1.0" encoding="utf-8"?>
<!-- Generator: Adobe Illustrator 24.0.3, SVG Export Plug-In . SVG Version: 6.00 Build 0)  -->
<svg version="1.1" xmlns="http://www.w3.org/2000/svg" xmlns:xlink="http://www.w3.org/1999/xlink" x="0px" y="0px"
	 viewBox="0 0 1000 1000" style="enable-background:new 0 0 1000 1000;" xml:space="preserve">
<style type="text/css">
	.st0{fill:#EDE3CC;}
	.st1{fill:#FFFFFF;}
</style>
<g id="Capa_1">
	<rect x="-2.4" y="-1.5" width="1006.7" height="1007.6"/>
	<path class="st0" d="M880.2,492.3"/>
</g>
<g id="Capa_2">
	<g>
		<g>
			<path class="st1" d="M153.2,578.8c-20.6-12.9-23.4-58.9-13.6-74c5.4-8.4,14.1-12.4,23.5-14.5c2.4-0.5,6.3-2.6,7.5,0.5
				c1.2,2.9,1.5,6.8-1.5,9.8c-2.7,2.7-5.4,5.6-7.6,8.7c-12.5,17.6-15.7,37.1-11.4,58.1C151,571,152.1,574.6,153.2,578.8z"/>
			<path class="st1" d="M186.5,597c-23.8-22.1-30-59.5-14.8-85.8C184.9,538.8,189.9,567.2,186.5,597z"/>
			<g>
				<path class="st1" d="M346.7,359.5c-17.2,9.6-35.1,10.6-53.7,4.9c-20-6.1-40.3-9-60.9-3.2c-18,5.1-32.2,15-40.5,32.3
					c-3.3,6.9-7.6,13.2-13.7,18.9c1.4-36.4,16-55.1,50.2-63.7c15.8-4,29.6-11.1,43.3-20.2c36.4-24.2,76.1-30.7,118-16
					c6.4,2.3,11.6,2.2,17.9-0.2c60-23,120.1-23.9,180,0.7c4.2,1.7,7.6,1.4,11.9,0.1c45.9-13.8,89.1-9.2,128.2,20.4
					c8.9,6.7,18.9,10.5,29.4,13.3c42.3,11.2,51.2,21.3,57.8,65.6c-6.4-4.3-10-10.3-13-16.5c-15.2-30.9-41.9-39.1-73.4-37.6
					c-9.8,0.5-19.3,3-28.7,5.8c-24.9,7.4-47.5,4.3-67-14.5c4.9,12.3,14.5,19.8,26.1,24.8c13.1,5.6,26.9,7.4,41.1,4.8
					c15.9-2.9,31.8-4.8,47.9-1.1c14.7,3.3,26.9,10.3,33.6,24.4c9.8,20.5,25.7,33.3,46.7,41.2c26.2,9.9,37,26.5,37.2,56.2
					c-14.1-23.9-35.9-29.3-59.4-31.8c-13.5-1.4-24.9-7.9-28.6-21.4c-11.3-41.3-42.3-49.7-78.8-48.8c-14.1,0.3-26.3-2.4-36.3-13.5
					c1.5,15.2,14.8,27.2,32.3,29.6c11.4,1.6,22.9,2.8,34,6.1c12.4,3.6,20.7,11,24.6,23.5c6.5,21,18.6,36.8,41.1,42.2
					c2.7,0.7,4.2,1.9,4.3,4.9c0.3,9.6-2.1,18.8-4.8,27.9c-1.3,4.3-3.2,1.9-5.4,1c-43.8-16.9-82.9,14.2-76.6,60.8
					c3.3,24.8,10.3,48.7,19.3,72c3.4,8.7,1,15-7.5,15.6c-13.7,0.9-27.5-1.7-40.8,4.1c0.2,0.3,2.2,1.6,4.4,1.3
					c11.5-1.4,22.3,2.5,33.4,4.2c18.2,2.9,28.6-10.2,23.3-27.8c-4.8-16.2-8.6-32.6-11-49.3c-0.7-4.8-0.6-7.3,5.7-8
					c14.7-1.6,23.7-12.4,32.5-23.1c3.3-4,0.7-6.2-2.1-8.6c-10.1-8.5-21.8-10.2-34.8-7.7c8.2-15.7,27.7-26.1,43.7-23.8
					c7.3,1.1,11.5,4.1,8,12.8c-6.3,15.6-7.3,31.5-4.7,48.4c6.3,40.1,1,78.3-23,112.5c-10.4,14.9-14.7,32.4-18.7,49.9
					c-1.6,6.8-3,13.8-5.3,20.4c-10.2,29-36.6,44.8-66.9,40.2c-20.4-3.1-38.6-11.9-56.1-22.5c-5.7-3.4-4.7-6-1.1-10.3
					c21.1-25.9,28.3-40.9,32.1-91.7c-5.4,12.8-9.4,23.2-14.1,33.3c-20.8,45-56.3,75.9-99.5,97.1c-22.7,11.1-47.7,7.5-69.7-5.3
					c-42.2-24.6-78.5-55.1-97.3-102.3c-2.6-6.4-5.9-12.6-9.6-18.5c3.1,31.2,9.5,61.2,31.6,85c6.2,6.7,3.8,9.1-2.4,12.8
					c-16.6,9.9-33.7,18.5-53,21.9c-34.6,6-62.4-11.6-71.7-45.9c-3.7-13.5-6.9-27.2-10.8-40.6c-2.7-9.1-6.8-17.8-12.3-25.5
					c-23.7-33.3-28-70.7-22.2-109.6c2.5-17,1.7-32.7-4.1-48.5c-3.4-9.5-1.1-12.8,8.8-13.7c17.1-1.4,35.6,8.7,42.7,23.8
					c-12.5-2.4-23.8-0.7-33.7,7.4c-4.2,3.4-4.6,6.4-1,10.4c8.9,10.1,17.8,20.2,32.2,21.7c6,0.6,4.2,3.9,3.7,7.3
					c-2.6,17-6.4,33.8-11.2,50.3c-4.7,16.1,3.4,27,19.9,27.7c7.4,0.3,13.4-3.8,20.1-5.3c6.3-1.4,13.3,3.2,21.2-1.1
					c-12.2-0.9-21.9-6.2-34.1-3.3c-12.9,3-17.8-4.8-13.3-17.5c8.4-23.2,15.2-46.7,18.8-71.1c3-20.3,0-39.3-17.8-51.9
					c-17.7-12.5-37.6-17-58.5-8.3c-5.1,2.1-5.9,0.6-6.8-3.4c-1-4.5-2.2-8.9-3.2-13.3c-2.2-9.7-1.7-16.4,10.8-19.8
					c15.2-4.2,26.2-16.4,30.1-31.4c6.5-24.7,23.5-33.1,46.1-35.6c6.9-0.8,14-1.2,20.7-3.1c14.2-3.9,24.6-12.4,28-28.1
					c-11.2,11.9-25.1,13.6-40.2,13c-8.3-0.3-16.8,0.8-25.1,2c-22.1,3.2-38.9,14.1-45.6,36.4c-6.5,21.7-20.5,31.9-42.9,33.3
					c-20.4,1.3-37.6,10-49.1,29.1c-2.2-23.3,8.7-44.2,29.9-52.2c25.2-9.5,43.8-24.3,56.2-48.8c8.1-16.1,25.3-19.9,42.1-21.5
					c12.3-1.2,24.4,1.1,36.5,2.8c22.1,3.1,42.5-0.6,59-17.3c0.1-3.1,2.6-5.1,3.4-7C353.9,358.8,349.2,357.5,346.7,359.5z"/>
				<path class="st1" d="M838.1,579.9c3.7-13.2,6.3-24.4,5-36c-1.8-16.2-7.8-30.4-19.4-42c-3.6-3.6-3.8-8-2-11.5
					c1.5-2.8,5.7-0.6,8.5,0.1c17.7,4.6,25.5,14.2,26.9,32.8C858.9,547.3,853.2,565.8,838.1,579.9z"/>
				<path class="st1" d="M806.3,595.6c-12.1-30.5,8.1-55.9,12.5-84.4C835.9,531.8,828.9,576,806.3,595.6z"/>
			</g>
		</g>
	</g>
	<g>
		<path d="M279.3,485.9c8-0.7,15.6-1.4,23.3-1.9c11.4-0.9,21.5-5.2,28.2-14.3c21.4-29.2,51.5-38.7,85.4-38.6
			c32.4,0.1,59.2-8.9,74.5-40.4c-1.3,17.4-10.1,30.1-23.2,40.3c-12.6,9.8-27.5,13.4-42.8,16c-7.6,1.3-15.2,2.5-22.7,3.9
			c-20.8,3.9-38.7,12.8-54.1,27.8c-19.7,19.2-43.3,22-67.6,9.7C279.7,488.1,279.6,486.7,279.3,485.9z"/>
		<path d="M712.6,487c-27.8,13.5-48.4,11.9-68.6-8.1c-18.2-18-40.1-26.1-64.3-30c-11.7-1.9-23.5-3.4-34.8-7.3
			c-23-7.8-38.1-23.2-44.8-46.8c3.7-1.6,4.5,1.1,5.7,3.2c13.7,23.2,35.1,32,60.7,32.6c16.1,0.4,32.1,1.1,47.7,5.7
			c14.3,4.2,27.9,10.6,36.8,22.8c13.9,19.1,32.1,27.2,55.1,26.1c1.7-0.1,3.5,0.1,5.2,0.3C711.6,485.6,711.8,486,712.6,487z"/>
		<path d="M519.2,662.4c-9.4-33.9-14.6-67.9-7.6-102.7c2.8-13.7,10.3-23.7,23.1-29.2c36.5-15.9,72.5-20.6,106.5,6.4
			c4.1,3.3,7.8,7,10,12c1.9,4.4,2.8,8.6-1.8,12.2c-4.4-18.9-20.2-23.8-35.2-26.9c-26.5-5.6-51.1,2.1-74.2,15.4
			c-5.9,3.4-7.4,10-9.5,15.9c-8.6,24.5-9.9,50.1-11.3,75.6C518.8,648.1,519.2,655.2,519.2,662.4z"/>
		<path d="M300.2,438.5c18.9-4.3,28.8-18.5,38.9-32.9c11.4-16.1,28.8-22.7,47.4-26.1c10-1.9,20.1-2.6,30.3-2.4
			c30.9,0.7,57.2-8,73.7-39.4c1.6,9.4-1.9,15-5.2,20.4c-12.5,20.1-31.6,29.9-54.2,33.9c-14.8,2.6-29.6,5.1-44.2,8.4
			c-16,3.6-30,11.1-40.9,23.9C334,438.3,318.7,442.7,300.2,438.5z"/>
		<path d="M497.5,335.8c3.1-0.4,3.7,0.7,4.3,2c12.8,28.1,36.4,38.4,65.3,39.1c18.2,0.4,36.3,0.6,53.8,6.6
			c13.2,4.6,25.1,11.5,32.7,23.4c9.3,14.7,19.9,27.1,37.9,31.4c-14,4-28.8,3.6-37.7-6.9c-24.8-29.4-58.7-34-93.1-39.6
			C528.5,386.7,506,369.6,497.5,335.8z"/>
		<path d="M474.2,622.5c0.4-75.6-22-81.7-67.9-89.6c-25.6-4.4-58,7.5-61.3,28.4c-6.3-8.2-1.6-14.2,3.4-19.6
			c15-15.9,33.8-23.2,55.3-23.9c20.3-0.7,39.5,3.6,57.6,13.1c13.5,7.1,21.1,17.8,22.7,33.1C486,583.5,482.3,601.9,474.2,622.5z"/>
		<path d="M413.6,596.1c-17.3,0.1-29.7-6.8-40.5-17.6c-4.3-4.3-4.5-7.9,0.6-12c23.7-19,52.5-15.5,72.5,11.9c3,4.1,0.8,6.2-2.6,8.3
			C433.8,592.5,423.3,595.6,413.6,596.1z"/>
		<path d="M580.3,596.2c-9.6-0.4-20.2-3.5-30.1-9.2c-3.9-2.3-5.8-4.6-2.4-9c21.8-28.5,49.4-28.7,71.2-12.1c5.7,4.3,6.7,8,1.2,13.3
			C609.5,589.3,597.3,596.1,580.3,596.2z"/>
		<path d="M441.2,750c35.9-22.2,71.9-22.3,107.4-0.4C541.2,755.9,451.9,756.6,441.2,750z"/>
		<path d="M733.2,738.2c-8.3,6.4-74.4,6.8-84.3,0c14.6-4.6,23.7-15.4,41.7-15.3C708.1,723.1,718.6,732.4,733.2,738.2z"/>
		<path d="M261.9,738.9c27.5-22,54.8-22.1,81.6-0.5C337.3,744.8,271.3,745.7,261.9,738.9z"/>
		<path d="M530.2,704.8c-9.9-0.3-18.5,3.1-27.2,6.3c-4.7,1.7-9.6,1.5-14.4,0c-8.8-2.7-17.1-7.8-27.3-4.3c6.9-8.4,13.1-15.7,25.2-9.4
			c6.1,3.2,14.3,3,20.4,0c8.9-4.3,14.7-2.2,20.1,5C527.8,703.4,529.2,704,530.2,704.8z"/>
		<path d="M715.3,758.8c-13,20.5-34.9,21.1-46.9,2.1c8.3,1.1,15.5,5,23.6,4.4C699.6,764.6,706.5,761.2,715.3,758.8z"/>
		<path d="M326.4,757.9c-6.6,19.9-37.6,22.4-46.5,1.8C296.2,767.4,311.2,766.4,326.4,757.9z"/>
		<path d="M516.7,774.2c-15.8,11.8-31,11.6-46.4-1C487.1,774.6,501.9,774.5,516.7,774.2z"/>
	</g>
	<path class="st0" d="M795.7,469.6"/>
	<g>
		<path class="st1" d="M349.8,275c-19.2-5-37.3-7.9-54.7,4.4c-0.1,0.1-0.8-0.8-1.5-1.5c12.1-13.6,28-19.6,44.5-24.5
			c2.4-0.7,5.5-1.7,9.9-2.9c15.2-4.2,28.3-6.2,38.4-7.4c-0.5-1.1-0.9-2.2-1.2-3.3c-3.3-12.9-5-26.3-4.3-39.5
			c-12.9,0.9-27.5,2.6-44.2,6c-31.5,6.5-48.2,16.1-59,24.2c-13.7,10.4-22.3,23.7-20.2,42.3c1.3,11.8,8.2,19.9,17.2,26.6
			c7.1,5.3,11.8-1.8,17.7-3c4.5-0.9,8.8-3.1,13.3-4c32-6.8,63.6-4.7,94.7,5.5c3,1,5.6,2.2,9,0.6c8.2-3.9,16.6-7,27.5-11.5
			c-7.5-0.8-12.4-1.4-17.2-1.9C396,283,372.5,281,349.8,275z"/>
		<path class="st1" d="M714.1,232.3c-10.8-8.2-27.5-17.7-59-24.2c-18.5-3.8-34.5-5.5-48.3-6.3c0.9,6.3,1.6,13.6,1.6,21.8
			c0,7.4-0.5,14.1-1.3,19.9c8.5,1.7,21.2,4.5,36.7,8.9c1.9,0.5,6.5,2,9.9,2.9c16.5,4.9,32.4,10.8,44.5,24.5
			c-0.7,0.7-1.4,1.5-1.5,1.5c-17.5-12.3-35.6-9.4-54.7-4.4c-22.7,6-46.2,8-69.6,10c-4.9,0.4-9.7,1-17.2,1.9
			c10.9,4.5,19.3,7.7,27.5,11.5c3.5,1.6,6,0.4,9-0.6c31.1-10.2,62.7-12.3,94.7-5.5c4.5,1,8.8,3.1,13.3,4c5.8,1.1,10.5,8.3,17.7,3
			c9-6.7,15.9-14.8,17.2-26.6C736.4,256,727.8,242.7,714.1,232.3z"/>
		<path class="st1" d="M369.2,244.4c31.2-3.3,57.2-4.7,76.8-5.3c18.9-0.6,35.8-0.6,44.8-0.5c13.9,0,26.5,0.1,42.3,0.7
			c44,1.7,72.5,4.5,72.5,4.5c25.7,2.5,34,4.4,36.8-0.3c5.1-8.4-12.5-28.8-24.1-41.1c-35-4.5-74.3-7.7-117-8.2
			c-56.5-0.7-107.4,3.5-151.1,9.6L369.2,244.4z"/>
	</g>
	<g>
		<path d="M494.8,292.9c0.9,0,1.8,0.1,2.8,0.1c-0.1-60.3-0.1-120.5-0.2-180.8c0-0.7-0.2,17.8-7.8,41.1c-4.5,13.8-9.6,29.2-23.7,42.3
			c-12.6,11.8-26.4,16.3-31.6,18c-16.9,5.4-35.3,5.8-34.5,5.8c0.7,0.1,1.7,0.2,2.9,0.3c7.9,1,25.5,3.3,44,13
			c5.4,2.8,11.1,5.8,17.5,11.5c9.6,8.4,14.3,17.2,20,27.7c2.9,5.4,6.3,12.4,9.4,21C494,292.9,494.4,292.9,494.8,292.9z"/>
		<path d="M554.4,212.2c-4.8-1.9-12.9-5.1-20.9-11c-4.9-3.6-18.8-14.8-28.8-47.3c-7.5-24.2-7.8-42.8-7.8-42.3
			c-0.1,60.4-0.1,120.9-0.2,181.3c1.9,0.1,3.8,0.3,5.7,0.6c2.3-8.7,5.1-15.7,7.5-21c3.6-7.8,6.9-15.1,13.9-22.7
			c7-7.8,14-11.8,19.9-15.1c18.6-10.6,37-13,47.8-14.3c1.2-0.2,2.2-0.3,2.9-0.3C585.2,219.9,570.5,218.6,554.4,212.2z"/>
	</g>
	<g>
		<path class="st1" d="M497.8,157.8c-0.7,9.4-2,17.2-4.1,24.4c-4.8,16.4-14.2,27.9-28.8,33.7c-5.9,2.4-12,3.6-18.2,4.4
			c0.5,0.1,1,0.1,1.5,0.2c5.2,0.5,10.3,1.6,15.3,3.4c12.5,4.5,21.8,13.3,27.4,26.7c4,9.5,5.8,19.6,6.6,30c0.1,0.7,0,1.4,0.3,2.2
			C497.8,241.1,497.8,199.4,497.8,157.8z"/>
		<path class="st1" d="M497.5,158.1c0.7,9.4,2,17.2,4.1,24.4c4.8,16.4,14.2,27.9,28.8,33.7c5.9,2.4,12,3.6,18.2,4.4
			c-0.5,0.1-1,0.1-1.5,0.2c-5.2,0.5-10.3,1.6-15.3,3.4c-12.5,4.5-21.8,13.3-27.4,26.7c-4,9.5-5.8,19.6-6.6,30
			c-0.1,0.7,0,1.4-0.3,2.2C497.4,241.4,497.5,199.8,497.5,158.1z"/>
	</g>
</g>
</svg>
